<svg xmlns="http://www.w3.org/2000/svg" viewBox="0 0 64 64"><g fill="#ff6663"><path d="M32 51.42c-7.03 0-12.75-5.72-12.75-12.75 0-6.76 7.83-18.13 12.75-24.36 4.92 6.23 12.75 17.59 12.75 24.36 0 7.03-5.72 12.75-12.75 12.75z"/><path d="M16.25 38.67c0-3.23 1.4-7.11 3.36-10.97-1.09-1.49-2.85-3.91-3.09-4.22C12.17 29.09 7 37.25 7 41.88c0 5.26 4.28 9.54 9.54 9.54 1.66 0 3.27-.44 4.71-1.26-3.07-2.88-5-6.95-5-11.49zm31.22-15.19c-.67.86-1.43 1.88-2.24 3.01l-.85 1.19c1.96 3.87 3.37 7.76 3.37 10.99 0 4.53-1.92 8.6-4.99 11.47 1.44.82 3.04 1.27 4.7 1.27 5.26 0 9.54-4.28 9.54-9.54 0-5-5.66-13.39-9.53-18.39z"/></g><g fill="#542c2c"><path d="M61.35 40c.1.65.15 1.28.15 1.88 0 .83-.67 1.5-1.5 1.5s-1.5-.67-1.5-1.5c0-.44-.04-.92-.12-1.42-.13-.82.43-1.58 1.25-1.71.82-.12 1.59.43 1.72 1.25z"/><path d="M58.94 47.14c.71.43.93 1.36.5 2.06-2.58 4.21-7.05 6.72-11.98 6.72-2.59 0-5.08-.71-7.28-2.05A17.256 17.256 0 0 1 32 55.92c-2.95 0-5.73-.75-8.16-2.06-2.2 1.35-4.71 2.06-7.3 2.06-7.74 0-14.04-6.3-14.04-14.04 0-9.08 12.38-23.53 12.9-24.14a1.512 1.512 0 0 1 2.28 0c.07.08 1.51 1.76 3.4 4.29 4.35-7.09 9.41-13 9.78-13.43.57-.66 1.71-.66 2.28 0 .28.34 5.39 6.29 9.78 13.43 1.89-2.53 3.33-4.21 3.4-4.29a1.512 1.512 0 0 1 2.28 0c.21.24 5.19 6.04 8.91 12.58.41.72.16 1.64-.56 2.05-.72.4-1.64.16-2.05-.56-2.53-4.46-5.76-8.65-7.44-10.74-.73.91-1.76 2.22-2.89 3.77.32.58.63 1.16.94 1.75.28.55.55 1.1.81 1.64.02.04.04.08.06.11.23.5.46 1 .67 1.5.01 0 .01.01.01.01.23.55.45 1.08.65 1.6.29.78-.1 1.64-.88 1.94-.17.06-.35.09-.53.09-.6 0-1.17-.37-1.4-.97-.19-.51-.41-1.04-.65-1.59-.03-.08-.07-.16-.11-.24-.19-.45-.4-.9-.63-1.36-.07-.16-.15-.31-.22-.47-.2-.4-.41-.8-.62-1.21-.09-.17-.19-.35-.28-.52-.24-.44-.49-.89-.75-1.34C38.29 19.9 34.01 14.4 32 11.93c-1.98 2.43-6.15 7.79-9.47 13.52-.01.02-.01.03-.02.05-2.73 4.74-4.29 8.69-4.67 11.79-.01.07-.01.14-.02.22-.04.4-.07.79-.07 1.16 0 .44.03.88.07 1.31.01.09.01.17.02.26.05.43.11.86.2 1.28 0 .02.01.04.01.05.09.44.2.87.33 1.29.01.02.02.04.02.07a14.23 14.23 0 0 0 1.79 3.7v.01c.25.36.52.72.8 1.06.01.01.02.03.03.04.26.31.53.61.82.9l.27.27c.18.17.37.33.55.5.31.26.63.52.97.76.06.05.11.09.17.13.22.16.45.31.68.45 2.19 1.36 4.76 2.17 7.52 2.17 2.62 0 5.1-.71 7.25-1.98.12-.1.25-.18.39-.23 2.15-1.37 3.93-3.3 5.12-5.69a1.498 1.498 0 0 1 2.68 1.34 17.37 17.37 0 0 1-4.43 5.61c1.4.62 2.9.95 4.45.95 3.87 0 7.4-1.98 9.42-5.28.43-.71 1.36-.93 2.06-.5zm-37.92 4.82c-.45-.37-.88-.78-1.3-1.19-.19-.2-.36-.41-.55-.61-.19-.22-.4-.44-.58-.67-.22-.27-.43-.55-.63-.84-.13-.18-.26-.36-.38-.55-.21-.31-.4-.62-.58-.95-.1-.18-.2-.36-.3-.55-.17-.33-.33-.66-.48-1-.09-.21-.18-.42-.26-.63-.13-.33-.25-.65-.36-.99-.09-.26-.15-.52-.23-.79-.08-.3-.16-.6-.23-.9-.07-.35-.12-.7-.18-1.05-.03-.25-.08-.48-.11-.73-.06-.6-.1-1.22-.1-1.84 0-.41.03-.84.07-1.26.01-.15.03-.29.05-.44.03-.3.08-.6.13-.91.03-.17.06-.34.1-.52.07-.33.15-.68.23-1.02.07-.26.14-.52.22-.79.09-.31.18-.61.28-.93.08-.24.17-.49.26-.75.09-.25.19-.51.29-.77.13-.36.28-.72.43-1.08.14-.34.28-.68.44-1.02.11-.26.23-.51.35-.77l.54-1.11c.12-.24.23-.47.36-.71.26-.51.53-1.01.81-1.52.04-.07.08-.15.12-.23-1.13-1.55-2.16-2.86-2.89-3.77C13.52 24.82 5.5 35.38 5.5 41.88c0 6.08 4.95 11.04 11.04 11.04 1.56 0 3.08-.33 4.48-.96z"/><path d="M49.16 37.11c.06.53.09 1.06.09 1.56 0 .83-.67 1.5-1.5 1.5s-1.5-.67-1.5-1.5c0-.39-.03-.8-.07-1.23-.09-.82.5-1.56 1.32-1.66.81-.08 1.57.51 1.66 1.33zm-7.41.06c.83 0 1.5.67 1.5 1.5 0 6.2-5.05 11.25-11.25 11.25-.83 0-1.5-.67-1.5-1.5s.67-1.5 1.5-1.5c4.55 0 8.25-3.7 8.25-8.25 0-.83.67-1.5 1.5-1.5zm-3.54-2.03c.83 0 1.5.67 1.5 1.5s-.67 1.5-1.5 1.5H33.5v4.71c0 .83-.67 1.5-1.5 1.5s-1.5-.67-1.5-1.5v-4.71h-4.71c-.83 0-1.5-.67-1.5-1.5s.67-1.5 1.5-1.5h4.71v-4.71c0-.83.67-1.5 1.5-1.5s1.5.67 1.5 1.5v4.71h4.71zM28.04 6.17c.65.51.77 1.45.26 2.1-.19.25-.39.5-.59.76a1.49 1.49 0 0 1-2.1.28c-.66-.5-.79-1.44-.28-2.1.21-.27.41-.54.61-.79.51-.65 1.45-.76 2.1-.25zm-3.53 4.62c.67.48.82 1.42.33 2.09-1 1.38-1.59 2.26-2.55 3.73-.29.44-.77.68-1.26.68a1.507 1.507 0 0 1-1.25-2.33c.98-1.5 1.6-2.42 2.64-3.84.49-.67 1.43-.82 2.09-.33z"/></g></svg>